PathFileType	4	(X/Y/Z)	8_coords_data.trc
DataRate	CameraRate	NumFrames	NumMarkers	Units	OrigDataRate	OrigDataStartFrame	OrigNumFrames
30.0	30.0	9	21	m	30.0	20	48
Frame#	Time	THUMB_TIP	THUMB_IP	THUMB_MCP	THUMB_CMC	INDEX_TIP	INDEX_DIP	INDEX_PIP	INDEX_MCP	MIDDLE_TIP	MIDDLE_DIP	MIDDLE_PIP	MIDDLE_MCP	RING_TIP	RING_DIP	RING_PIP	RING_MCP	PINKY_TIP	PINKY_DIP	PINKY_PIP	PINKY_MCP	WRIST
X1	Y1	Z1	X2	Y2	Z2	X3	Y3	Z3	X4	Y4	Z4	X5	Y5	Z5	X6	Y6	Z6	X7	Y7	Z7	X8	Y8	Z8	X9	Y9	Z9	X10	Y10	Z10	X11	Y11	Z11	X12	Y12	Z12	X13	Y13	Z13	X14	Y14	Z14	X15	Y15	Z15	X16	Y16	Z16	X17	Y17	Z17	X18	Y18	Z18	X19	Y19	Z19	X20	Y20	Z20	X21	Y21	Z21
19	0.6333333333333333	-0.04817589950561523	-0.10414499664306641	1.0102000122070312	-0.06675389862060546	-0.08921829986572266	1.0139000244140626	-0.08131919860839844	-0.06883599853515625	1.0116599731445313	-0.08000920104980469	-0.03993159866333008	1.0130800170898437	-0.07633740234375	-0.14827099609375	0.9849559936523438	-0.07753279876708985	-0.12828799438476562	0.9820130004882812	-0.07847750091552734	-0.10816799926757813	0.975593017578125	-0.07610099792480468	-0.07127950286865234	0.9673619995117188	-0.06968080139160156	-0.06892639923095703	1.0004600219726563	-0.06538999938964844	-0.08274970245361328	1.00127001953125	-0.05782720184326172	-0.09778479766845703	0.9909639892578125	-0.05456019973754883	-0.06603820037841797	0.9658090209960938	-0.05539120101928711	-0.06735849761962891	1.0150900268554688	-0.051385101318359376	-0.08119090270996093	1.009260009765625	-0.04081119918823242	-0.09155509948730468	0.9979110107421875	-0.038123001098632814	-0.06173759841918945	0.9774229736328125	-0.012200400352478028	-0.12012799835205078	0.9911339721679687	-0.016911100387573243	-0.10124099731445313	0.9917520141601562	-0.021820199966430663	-0.08429969787597656	0.9918930053710937	-0.030508699417114257	-0.05810869979858398	0.9940280151367188	-0.07086920166015626	-0.0020147299766540517	1.0196199951171876
20	0.6666666666666666	-0.04827750015258789	-0.1045739974975586	1.0104099731445313	-0.0669446029663086	-0.08970890045166016	1.0139600219726563	-0.08169159698486328	-0.06932640075683594	1.0116500244140625	-0.08027169799804687	-0.04040470123291016	1.0130800170898437	-0.07652490234375	-0.14878799438476562	0.98497998046875	-0.07777359771728516	-0.12881100463867187	0.9820570068359376	-0.07871839904785156	-0.10869100189208984	0.9756190185546875	-0.07645110321044922	-0.07176280212402343	0.9674359741210937	-0.06978890228271484	-0.06947720336914062	1.0008499755859375	-0.06568099975585938	-0.08336530303955078	1.001219970703125	-0.058037498474121096	-0.09828600311279297	0.99085302734375	-0.05490470123291016	-0.066597900390625	0.965739013671875	-0.055488601684570316	-0.06821540069580079	1.0144600219726563	-0.05181069946289062	-0.08109709930419921	1.0091500244140625	-0.041018501281738284	-0.09245110321044922	0.99827197265625	-0.03843619918823242	-0.062351600646972656	0.9771500244140625	-0.012444399833679199	-0.12059700012207031	0.9909520263671875	-0.017137699127197266	-0.10170800018310547	0.9914819946289063	-0.022060400009155275	-0.08478910064697266	0.9916799926757812	-0.030775299072265627	-0.05869850158691406	0.9936810302734375	-0.07112689971923829	-0.002426990032196045	1.0197000122070312
21	0.7	-0.04819049835205078	-0.104875	1.0104099731445313	-0.06691470336914063	-0.09016120147705078	1.0138800048828125	-0.0816863021850586	-0.06977570343017578	1.0114500122070313	-0.08031120300292968	-0.0408291015625	1.0129000244140625	-0.07644120025634765	-0.14924699401855468	0.9850640258789063	-0.077660400390625	-0.12924400329589844	0.9820369873046875	-0.07861029815673828	-0.10911699676513673	0.9755590209960937	-0.07631549835205079	-0.07218190002441406	0.9673740234375	-0.06988390350341797	-0.06966660308837891	1.0002899780273438	-0.06554769897460938	-0.08351219940185547	1.0014199829101562	-0.05796649932861328	-0.09867410278320313	0.9908740234375	-0.05479209899902344	-0.06701629638671874	0.9656669921875	-0.05536000061035156	-0.06826180267333984	1.0146699829101562	-0.05153950119018555	-0.08102020263671875	1.0089600219726562	-0.04090079879760742	-0.09270010375976563	0.997927978515625	-0.03828939819335937	-0.06280220031738282	0.9769829711914062	-0.012187199592590332	-0.12091999816894532	0.9911259765625	-0.01695330047607422	-0.1020459976196289	0.9916539916992188	-0.02194969940185547	-0.08514399719238282	0.9917470092773437	-0.03070840072631836	-0.0591432991027832	0.9937349853515625	-0.07121659851074219	-0.0029049699306488027	1.0193599853515625
22	0.7333333333333333	-0.048206199645996095	-0.10526699829101563	1.010260009765625	-0.06674259948730468	-0.09059110260009766	1.0137000122070312	-0.0815833969116211	-0.07016639709472657	1.0113300170898438	-0.08026629638671876	-0.04125490188598633	1.0126699829101562	-0.07630259704589844	-0.149697998046875	0.9849039916992187	-0.07754640197753906	-0.12971000671386718	0.9818790283203125	-0.07852839660644531	-0.10961699676513671	0.9753569946289062	-0.07615779876708985	-0.07274929809570313	0.9670609741210937	-0.06982659912109375	-0.0704635009765625	1.0000599975585938	-0.06557109832763672	-0.0842123031616211	1.0009199829101563	-0.057852298736572265	-0.09917790222167969	0.9905170288085937	-0.0548036994934082	-0.0675010986328125	0.96543798828125	-0.055675201416015625	-0.06912190246582031	1.0145900268554688	-0.05168510055541992	-0.08178479766845703	1.009239990234375	-0.04097679901123047	-0.09311530303955078	0.9981179809570313	-0.03834569931030273	-0.06320130157470703	0.9767269897460937	-0.011917499542236329	-0.12126399993896485	0.9911329956054687	-0.016736099243164063	-0.10240599822998046	0.9916079711914062	-0.021816200256347656	-0.08553340148925781	0.9915579833984375	-0.03078689956665039	-0.059432098388671875	0.99364501953125	-0.07127230072021484	-0.003230730056762695	1.0191699829101561
23	0.7666666666666667	-0.04822719955444336	-0.10584400177001953	1.0096599731445313	-0.06686579895019532	-0.0910448989868164	1.0134199829101562	-0.08164910125732422	-0.07060299682617187	1.011030029296875	-0.08040129852294922	-0.04158190155029297	1.0123499755859375	-0.07624629974365234	-0.15016200256347656	0.9845089721679687	-0.07754019927978516	-0.1301510009765625	0.9814459838867188	-0.07857769775390624	-0.1100270004272461	0.974969970703125	-0.07640969848632813	-0.07308209991455078	0.9666610107421875	-0.06992259979248047	-0.07065489959716797	1.0005999755859376	-0.06561029815673829	-0.0844645004272461	1.00097998046875	-0.05790840148925781	-0.09956629943847656	0.99031298828125	-0.0548474006652832	-0.06785849761962891	0.9650700073242188	-0.05576340103149414	-0.06947570037841796	1.0140900268554687	-0.05160240173339844	-0.08291919708251953	1.009219970703125	-0.04091709899902344	-0.09366280364990234	0.9972139892578125	-0.038402801513671876	-0.0635629997253418	0.9764660034179687	-0.01177649974822998	-0.12156800079345703	0.9908599853515625	-0.016669599533081055	-0.10274400329589843	0.991322021484375	-0.021818500518798828	-0.08589450073242187	0.9913599853515624	-0.030851999282836915	-0.05985940170288086	0.9932230224609375	-0.07132260131835938	-0.003671210050582885	1.0189000244140625
24	0.8	-0.04820479965209961	-0.10605599975585937	1.009280029296875	-0.0668197021484375	-0.09125270080566407	1.0130399780273438	-0.08176950073242187	-0.07087460327148437	1.0106099853515624	-0.0804103012084961	-0.041885299682617186	1.01197998046875	-0.07619370269775391	-0.15037800598144532	0.9842369995117187	-0.07752529907226563	-0.13042100524902345	0.9811740112304688	-0.07861190032958984	-0.11034500122070312	0.9747830200195312	-0.07647329711914062	-0.07334010314941407	0.9663060302734375	-0.0699811019897461	-0.07087799835205078	0.9999929809570313	-0.06559829711914063	-0.08475279998779296	1.0005	-0.05795949935913086	-0.09978919982910156	0.9900250244140625	-0.05494409942626953	-0.0681083984375	0.9647059936523438	-0.055704898834228515	-0.06947460174560546	1.0136400146484374	-0.051663299560546876	-0.08289769744873046	1.0083300170898437	-0.040885101318359374	-0.09388710021972656	0.996989990234375	-0.03849340057373047	-0.0638499984741211	0.975927001953125	-0.011726200103759766	-0.1216729965209961	0.9904119873046875	-0.016644100189208984	-0.10286299896240235	0.990885009765625	-0.021808000564575197	-0.08604979705810546	0.9909240112304688	-0.030876899719238283	-0.06010770034790039	0.9926669921875	-0.0714011001586914	-0.003905459880828857	1.0183900146484375
25	0.8333333333333334	-0.0485261001586914	-0.10594100189208984	1.0089000244140625	-0.06703810119628906	-0.09114589691162109	1.01277001953125	-0.08186389923095704	-0.07074949645996094	1.0103800048828124	-0.08064009857177734	-0.04176580047607422	1.011780029296875	-0.07626290130615235	-0.1502530059814453	0.9840430297851562	-0.07761239624023437	-0.13030999755859374	0.9809140014648438	-0.07872460174560547	-0.11014900207519532	0.974385986328125	-0.07662550354003907	-0.07325479888916016	0.96602001953125	-0.07007689666748047	-0.07079969787597656	0.9992440185546875	-0.06571510314941406	-0.08475859832763671	1.0001900024414063	-0.05803689956665039	-0.09963849639892577	0.9897169799804687	-0.055201499938964844	-0.06798909759521485	0.9643350219726563	-0.05545740127563477	-0.06962850189208984	1.0134500122070313	-0.0516442985534668	-0.08254270172119141	1.0081699829101562	-0.041204200744628904	-0.09332640075683593	0.9969149780273437	-0.038750499725341794	-0.0636589012145996	0.9756790161132812	-0.011766300201416016	-0.12148600006103516	0.9901699829101562	-0.01672100067138672	-0.10266899871826173	0.9905750122070313	-0.021905500411987303	-0.08594860076904297	0.9905150146484375	-0.031085800170898438	-0.06000930023193359	0.992572021484375	-0.0715448989868164	-0.003993210077285766	1.0178699951171875
26	0.8666666666666667	-0.04831290054321289	-0.10544300079345703	1.00852001953125	-0.06711669921875	-0.0907843017578125	1.012280029296875	-0.082127197265625	-0.07039430236816406	1.00997998046875	-0.08096179962158204	-0.041365398406982425	1.011489990234375	-0.07610810089111328	-0.14977699279785156	0.9835999755859375	-0.07757140350341797	-0.12980499267578124	0.9805709838867187	-0.0788113021850586	-0.10969300079345704	0.9741079711914062	-0.07697730255126953	-0.0728031997680664	0.9657230224609376	-0.0702313003540039	-0.07031950378417968	0.9998660278320313	-0.06574169921875	-0.08435579681396485	0.999531982421875	-0.05817319869995117	-0.0991104965209961	0.989208984375	-0.05554819869995117	-0.06729679870605469	0.9640590209960938	-0.056325199127197266	-0.06850810241699219	1.0133200073242188	-0.051820400238037106	-0.08234670257568359	1.00852001953125	-0.04117190170288086	-0.09307540130615234	0.9961799926757813	-0.039113601684570315	-0.06293560028076171	0.9753400268554687	-0.011651200294494629	-0.12069599914550781	0.9896599731445312	-0.016731100082397463	-0.10196700286865235	0.9901279907226562	-0.02202199935913086	-0.08519640350341796	0.990155029296875	-0.031419500350952145	-0.05916350173950195	0.9921909790039063	-0.07202110290527344	-0.0033384499549865723	1.0179400024414063
27	0.9	-0.048001399993896486	-0.10462200164794921	1.0077999877929686	-0.06672480010986329	-0.09001470184326171	1.0118599853515624	-0.08210769653320313	-0.06980899810791015	1.0098900146484375	-0.08087640380859375	-0.04089310073852539	1.0114199829101562	-0.07489309692382813	-0.14890800476074217	0.9829429931640625	-0.076806396484375	-0.1290189971923828	0.980010009765625	-0.07847530364990235	-0.10895099639892578	0.9737219848632812	-0.07730130004882813	-0.07208170318603516	0.9652869873046875	-0.07012519836425782	-0.06981330108642578	0.9983809814453125	-0.06562139892578125	-0.08329280090332031	0.9993140258789063	-0.057865001678466796	-0.0981948013305664	0.9883880004882812	-0.05606349945068359	-0.06629239654541015	0.9634600219726562	-0.0560526008605957	-0.06882160186767577	1.0129299926757813	-0.051604400634765624	-0.08128710174560547	1.0073499755859374	-0.040967899322509764	-0.09184470367431641	0.995697998046875	-0.039507400512695315	-0.06163370132446289	0.97460302734375	-0.011060400009155274	-0.11902100372314453	0.9887169799804687	-0.01638789939880371	-0.10025700378417969	0.9892340087890625	-0.02187779998779297	-0.08360700225830078	0.9890670166015625	-0.03162249946594238	-0.057869598388671874	0.9912420043945313	-0.07280879974365234	-0.002595629930496216	1.0179199829101562
